<svg width="864" height="848" viewBox="0 0 864 848" fill="none" xmlns="http://www.w3.org/2000/svg">
<path d="M0 646.702C30.7044 771.14 79.5101 814.187 217.348 848H697.356C743.453 793.115 752.581 749.59 735.757 646.702C765.894 625.719 779.528 607.16 802.574 571.407C844.641 475.322 846.494 405.892 822.542 262.546C655.05 74.636 615.61 -132.135 217.348 109.651C109.853 174.715 84.0297 221.144 107.522 324.011C113.082 379.983 113.968 407.923 107.522 445.404C32.4108 539.854 13.9156 566.195 0 646.702Z" fill="#EDF9FE"/>
<path d="M38 646.702C68.7044 771.14 117.51 814.187 255.348 848H735.356C781.453 793.115 790.581 749.59 773.757 646.702C803.894 625.719 817.528 607.16 840.574 571.407C882.641 475.322 884.494 405.892 860.542 262.546C693.05 74.636 653.61 -132.135 255.348 109.651C147.853 174.715 122.03 221.144 145.522 324.011C151.082 379.983 151.968 407.923 145.522 445.404C70.4108 539.854 51.9156 566.195 38 646.702Z" fill="#D1EFFB"/>
</svg>
