<svg width="24" height="24" viewBox="0 0 24 24" fill="none" xmlns="http://www.w3.org/2000/svg">
<path d="M23.6645 8.92867C23.617 8.88083 18.9694 4.15 16.7382 1.75833C16.2473 1.27452 15.5886 1.0025 14.9019 1C13.5333 1 12.4206 2.04533 12.4206 3.33333H3.15785C2.85077 3.33333 2.55626 3.45625 2.33913 3.67504C2.12199 3.89383 2 4.19058 2 4.5V20.8333C2 21.1428 2.12199 21.4395 2.33913 21.6583C2.55626 21.8771 2.85077 22 3.15785 22H19.3677C19.6748 22 19.9693 21.8771 20.1864 21.6583C20.4036 21.4395 20.5255 21.1428 20.5255 20.8333V13.7808C21.5694 12.7086 22.6157 11.6387 23.6645 10.5713C23.8794 10.3528 24 10.0576 24 9.75C24 9.44235 23.8794 9.14716 23.6645 8.92867ZM15.0593 16.0978L14.9019 16.1667L14.7351 16.12V11.5H13.5773C11.5268 11.5397 9.71473 12.2933 8.07406 13.7843C8.57193 11.2002 9.92661 8 13.5773 8H14.7351V3.38233L14.9019 3.33333L15.0802 3.39167C16.7429 5.17083 19.7706 8.2765 21.2133 9.75C20.9204 10.0498 16.1859 14.909 15.0593 16.0978ZM4.31569 19.6667V5.66667H13.5785V6.83333C8.1829 6.83333 6.63138 12.5162 6.63138 16.75V17.3333C8.5893 14.3257 10.7996 12.7215 13.5785 12.6667V16.1667C13.5785 16.8095 14.1713 17.3333 14.9019 17.3333C15.3233 17.3333 15.6846 17.149 15.9243 16.8772C16.5483 16.218 17.3623 15.371 18.2122 14.4937V19.6667H4.31569Z" fill="white"/>
</svg>
