<svg width="155" height="155" viewBox="0 0 155 155" fill="none" xmlns="http://www.w3.org/2000/svg">
<path d="M82.3438 130.781V101.719H101.719L77.5 72.6562L53.2812 101.719H72.6562V130.781H48.4375V130.539C47.6237 130.588 46.8488 130.781 46.0156 130.781C36.3808 130.781 27.1406 126.954 20.3278 120.141C13.5149 113.328 9.6875 104.088 9.6875 94.4531C9.6875 75.8144 23.7828 60.6244 41.8694 58.5416C43.4552 50.2519 47.88 42.774 54.3828 37.3938C60.8857 32.0137 69.06 29.0677 77.5 29.0625C85.9411 29.0672 94.1169 32.0128 100.621 37.3928C107.126 42.7728 111.553 50.2511 113.14 58.5416C131.227 60.6244 145.303 75.8144 145.303 94.4531C145.303 104.088 141.475 113.328 134.663 120.141C127.85 126.954 118.61 130.781 108.975 130.781C108.161 130.781 107.376 130.588 106.553 130.539V130.781H82.3438Z" fill="#39AEFF"/>
</svg>
